<svg xmlns="http://www.w3.org/2000/svg" width="800" height="1000" viewBox="0 0 800 1000">
<defs>
  <linearGradient id="bg" x1="0" y1="0" x2="0" y2="1"><stop stop-color="#173826"/><stop offset=".52" stop-color="#2d4b1e"/><stop offset="1" stop-color="#120c05"/></linearGradient>
  <radialGradient id="sun" cx="68%" cy="18%" r="50%"><stop stop-color="#fff3a2"/><stop offset=".18" stop-color="#ffcc4a" stop-opacity=".5"/><stop offset="1" stop-color="#ffbb18" stop-opacity="0"/></radialGradient>
  <linearGradient id="bee" x1="0" y1="0" x2="1" y2="1"><stop stop-color="#fff07f"/><stop offset=".5" stop-color="#ffc419"/><stop offset="1" stop-color="#b76a00"/></linearGradient>
  <filter id="glow" x="-70%" y="-70%" width="240%" height="240%"><feGaussianBlur stdDeviation="16" result="b"/><feMerge><feMergeNode in="b"/><feMergeNode in="SourceGraphic"/></feMerge></filter>
</defs>
<rect width="800" height="1000" rx="56" fill="url(#bg)"/><rect width="800" height="1000" rx="56" fill="url(#sun)"/>
<g opacity=".2" fill="none" stroke="#ffc738" stroke-width="4"><path d="M46 180h92l46 80-46 80H46L0 260z"/><path d="M616 300h92l46 80-46 80h-92l-46-80z"/><path d="M558 140h76l38 66-38 66h-76l-38-66z"/></g>
<g filter="url(#glow)" transform="translate(190 185)"><ellipse cx="210" cy="180" rx="175" ry="140" fill="#241700" stroke="#ffd657" stroke-width="14"/><path d="M62 142h296M52 190h316M70 238h280" stroke="#ffc51c" stroke-width="48"/><ellipse cx="210" cy="76" rx="112" ry="88" fill="url(#bee)" stroke="#6f3d00" stroke-width="14"/><ellipse cx="87" cy="130" rx="105" ry="52" transform="rotate(-24 87 130)" fill="#e6fbff" fill-opacity=".7" stroke="#fff" stroke-width="8"/><ellipse cx="333" cy="130" rx="105" ry="52" transform="rotate(24 333 130)" fill="#e6fbff" fill-opacity=".7" stroke="#fff" stroke-width="8"/><circle cx="175" cy="68" r="10" fill="#18130b"/><circle cx="245" cy="68" r="10" fill="#18130b"/><path d="M180 110c20 18 40 18 60 0" fill="none" stroke="#6f3d00" stroke-width="10" stroke-linecap="round"/></g>
<g transform="translate(72 580)"><circle cx="92" cy="88" r="74" fill="#ef3347" stroke="#ff9b72" stroke-width="8"/><circle cx="214" cy="104" r="74" fill="#ff921c" stroke="#ffd068" stroke-width="8"/><path d="M296 124c18-54 60-80 108-54 37 20 42 66 7 95-40 31-86 16-111-20z" fill="#ffe33a" stroke="#fff27e" stroke-width="8"/><path d="M472 60c68 0 108 35 118 82-48 14-102 1-134-37z" fill="#5ac95e"/><path d="M450 151A92 92 0 0 1 634 151z" fill="#38ad59"/><path d="M466 145A75 75 0 0 1 618 145z" fill="#f34559"/></g>
<text x="400" y="820" text-anchor="middle" font-family="Arial, sans-serif" font-size="76" font-weight="900" fill="#fff1a6" stroke="#6c3200" stroke-width="10" paint-order="stroke">HONEY</text>
<text x="400" y="898" text-anchor="middle" font-family="Arial, sans-serif" font-size="76" font-weight="900" fill="#ffc632" stroke="#6c3200" stroke-width="10" paint-order="stroke">FRUITS</text>
<text x="400" y="952" text-anchor="middle" font-family="Arial, sans-serif" font-size="24" font-weight="800" fill="#fff8d6" letter-spacing="6">GIANT BEE BONUS</text>
</svg>