<svg xmlns="http://www.w3.org/2000/svg" width="520" height="720" viewBox="0 0 520 720">
<defs><linearGradient id="skin"><stop stop-color="#f5deb6"/><stop offset=".55" stop-color="#c99e70"/><stop offset="1" stop-color="#775239"/></linearGradient><linearGradient id="gold"><stop stop-color="#fff3a8"/><stop offset=".5" stop-color="#dda838"/><stop offset="1" stop-color="#70420d"/></linearGradient><filter id="g" x="-60%" y="-60%" width="220%" height="220%"><feGaussianBlur stdDeviation="9" result="b"/><feMerge><feMergeNode in="b"/><feMergeNode in="SourceGraphic"/></feMerge></filter></defs>
<path d="M70 690Q90 520 155 435L365 435Q430 520 450 690Z" fill="#f2f4f6" stroke="#8fa2b5" stroke-width="12"/><path d="M145 470Q110 382 126 258Q142 116 260 92Q378 116 394 258Q410 382 375 470Q320 525 260 530Q200 525 145 470Z" fill="url(#skin)" stroke="#6d4d39" stroke-width="11"/><path d="M135 295Q95 220 150 142Q208 72 260 78Q312 72 370 142Q425 220 385 295Q344 224 260 210Q176 224 135 295Z" fill="#f2f2ef" stroke="#9ca8b0" stroke-width="9"/><path d="M128 320Q100 445 170 565Q200 615 260 640Q320 615 350 565Q420 445 392 320Q357 410 318 430L260 565 202 430Q163 410 128 320Z" fill="#f7f8f7" stroke="#a5adb2" stroke-width="10"/><path d="M175 280Q213 252 242 277M345 280Q307 252 278 277" fill="none" stroke="#593d31" stroke-width="12" stroke-linecap="round"/><circle cx="210" cy="295" r="13" fill="#8ff0ff" filter="url(#g)"/><circle cx="310" cy="295" r="13" fill="#8ff0ff" filter="url(#g)"/><path d="M260 302 235 370 274 375" fill="none" stroke="#805b44" stroke-width="9" stroke-linecap="round"/><path d="M212 408Q260 435 308 408" fill="none" stroke="#714c3c" stroke-width="9" stroke-linecap="round"/><path d="M118 520 46 604 118 587 82 680 183 558 137 570Z" fill="url(#gold)" stroke="#fff0a0" stroke-width="7" filter="url(#g)"/>
</svg>
